<svg class="logo" width="100%" height="100%" viewBox="0 0 448 512" xmlns="http://www.w3.org/2000/svg" xmlns:svg="http://www.w3.org/2000/svg">
 <g>
  <path d="m49.63142,381.23662c-0.45158,-38.37247 -0.00664,-237.49429 0.68014,-304.37406l0.3739,-36.41194l65.04831,0l65.04832,0l18.1612,5.32905c19.54556,5.73527 22.60507,7.04134 34.09136,14.55329c8.15063,5.33046 13.80114,10.06552 21.16095,17.73263c8.38927,8.73954 13.48315,15.92308 18.86304,26.60119c4.53801,9.00714 7.3376,16.79421 9.29267,25.84765c6.81902,31.57714 -1.95393,65.27493 -23.83432,91.55001c-2.45049,2.94268 -8.53459,9.22931 -13.52023,13.9703c-11.4002,10.84077 -16.15602,16.35001 -18.96291,21.96699c-2.18225,4.36699 -2.21312,4.52721 -2.17623,11.29513c0.034,6.24036 0.21606,7.35195 1.99972,12.21114c4.33381,11.80641 12.51944,26.18588 36.79494,64.63666c32.02502,50.7255 43.98728,70.32654 43.32411,70.98971c-0.31532,0.31532 -192.81984,1.94416 -234.1232,1.98097l-21.77576,0.0194l-0.44601,-37.89812z" id="path837" stroke-miterlimit="4" stroke-width="1.12343"/>
  <path d="m388.45577,470.95315c-1.32741,-0.62049 -3.24003,-2.17178 -4.25027,-3.44731c-4.89281,-6.17767 -55.96673,-86.10291 -95.8706,-150.02726c-22.43913,-35.94656 -25.75821,-41.57643 -25.70085,-43.5941c0.0788,-2.77138 3.72504,-7.44601 14.56755,-18.67621c13.82589,-14.32024 21.39364,-23.9109 28.02932,-35.52175c3.58334,-6.26998 6.18992,-9.53749 6.97892,-8.74849c0.788,0.788 14.85798,38.75947 42.10053,113.61909c13.80809,37.94317 18.89412,51.36207 31.79105,83.87699c13.25268,33.41182 15.41226,39.97064 16.13576,49.00552c0.43381,5.41726 -0.55905,11.49023 -2.13637,13.06757c-1.74143,1.74142 -8.33358,1.99387 -11.64504,0.44595z" id="path839" stroke-miterlimit="4" stroke-width="1.12343"/>
  <path d="m381.63409,509.24113c-9.45157,-1.97574 -17.128,-6.1502 -24.08524,-13.09759c-6.2115,-6.20271 -13.03464,-15.72944 -24.37607,-34.03478c-2.27123,-3.66582 -4.53332,-6.67538 -5.02685,-6.68791c-0.49354,-0.0125 -1.22745,-0.55136 -1.63092,-1.19742c-0.72666,-1.16357 -2.05658,-1.17648 -141.18352,-1.37102c-129.66699,-0.18132 -140.82962,-0.27437 -145.39529,-1.21206c-5.63127,-1.15654 -8.12078,-2.29588 -14.26886,-6.53023c-5.07691,-3.49661 -7.88624,-6.58136 -9.932,-10.90575l-1.46955,-3.10637l0,-203.08875l0,-203.08875l1.46593,-3.08421c2.25534,-4.74508 4.60524,-7.16207 11.34487,-11.66877c10.33301,-6.90954 1.3375,-6.24833 87.65642,-6.44315c83.72394,-0.18896 81.55198,-0.27601 95.03258,3.80906c26.89302,8.14948 50.17274,21.64163 69.49541,40.27723c11.49588,11.08712 21.11839,23.41605 26.34731,33.75773c8.3402,16.49515 83.42459,221.5226 122.09833,333.405c12.38359,35.82549 15.17966,44.74045 15.17966,48.39869c0,4.26055 -2.43751,12.51246 -5.63448,19.07486c-5.99403,12.30391 -17.09605,21.29296 -31.6464,25.62335c-6.43019,1.91371 -17.76834,2.46751 -23.97133,1.17084zm20.21859,-7.50078c11.80502,-2.82987 21.76263,-9.88615 27.66693,-19.60566c1.1217,-1.84653 3.01458,-6.27141 4.20638,-9.83308c1.80981,-5.40853 2.11309,-7.01663 1.84021,-9.75759c-0.84752,-8.51313 -59.55303,-174.36335 -106.05065,-299.60598c-22.24894,-59.92812 -28.50087,-75.64204 -33.09559,-83.18401c-18.02665,-29.58972 -51.99473,-54.72919 -88.3535,-65.38961c-12.85601,-3.76939 -9.56831,-3.63783 -90.9085,-3.63783c-83.92366,0 -77.89678,-0.34204 -85.60973,4.85857c-5.90839,3.98385 -6.45957,4.47884 -8.45519,7.59329l-1.69348,2.64293l0,202.0307c0,198.81357 0.01837,202.06671 1.15394,204.2926c0.63466,1.24405 2.13436,3.12272 3.33265,4.17484c3.57491,3.13881 9.91359,7.06477 12.45611,7.71489c6.72771,1.72024 17.71769,1.85198 154.50904,1.85198c107.95492,0 139.98087,0.16257 140.53167,0.71337c0.39236,0.39236 0.71338,1.42919 0.71338,2.30407c0,1.61119 11.88008,20.83195 19.63021,31.75967c5.03039,7.09288 12.98498,14.96752 17.52483,17.34869c3.43874,1.80363 9.69914,4.02549 12.78133,4.53617c4.35547,0.72166 13.09121,0.32555 17.81996,-0.80801z" id="path841" stroke-miterlimit="4" stroke-width="4.49371"/>
 </g>
</svg>