<svg class="logo" width="100%" height="100%" viewBox="0 0 448 512" xmlns="http://www.w3.org/2000/svg" xmlns:svg="http://www.w3.org/2000/svg">
 <g>
  <path id="raplog" stroke-miterlimit="4" stroke-width="1.12343"
        d="M 125.00,3.21
           C 142.58,3.00 184.96,2.07 200.00,4.44
             229.53,9.09 265.81,31.41 285.91,53.00
             291.89,59.42 299.79,69.40 304.13,77.00
             304.13,77.00 327.42,135.00 327.42,135.00
             327.42,135.00 380.31,279.00 380.31,279.00
             380.31,279.00 426.00,408.00 426.00,408.00
             426.00,408.00 438.00,443.00 438.00,443.00
             440.33,449.99 443.26,457.56 442.96,465.00
             442.09,486.59 424.22,504.26 404.00,509.10
             398.74,510.36 391.52,510.06 386.00,510.00
             364.49,509.74 351.78,492.18 341.00,476.00
             337.21,470.31 330.08,456.85 324.00,454.60
             322.07,453.89 319.08,454.00 317.00,454.00
             317.00,454.00 285.00,454.00 285.00,454.00
             285.00,454.00 268.00,453.00 268.00,453.00
             268.00,453.00 49.00,453.00 49.00,453.00
             36.24,452.85 18.72,446.49 14.65,433.00
             13.89,430.50 14.00,427.60 14.00,425.00
             14.00,425.00 14.00,109.00 14.00,109.00
             14.00,109.00 14.00,44.00 14.00,44.00
             14.00,33.88 11.96,23.15 19.33,15.17
             21.33,13.01 24.54,10.70 27.00,9.03
             38.20,1.44 42.90,5.14 55.00,3.21
             55.00,3.21 125.00,3.21 125.00,3.21 Z
           M 39.00,12.53
           C 30.25,14.61 22.16,21.66 22.00,31.00
             22.00,31.00 22.00,95.00 22.00,95.00
             22.00,95.00 22.00,354.00 22.00,354.00
             22.00,354.00 22.00,410.00 22.00,410.00
             22.00,416.70 21.00,428.44 24.72,433.96
             31.02,443.28 43.71,444.98 54.00,445.00
             54.00,445.00 246.00,445.00 246.00,445.00
             246.00,445.00 261.00,446.00 261.00,446.00
             261.00,446.00 325.00,446.00 325.00,446.00
             327.24,446.00 330.68,445.78 332.59,447.02
             334.47,448.25 336.07,451.98 337.18,454.00
             337.18,454.00 345.05,467.00 345.05,467.00
             355.10,482.84 367.01,501.74 388.00,502.00
             407.80,502.24 423.90,495.52 431.79,476.00
             433.47,471.87 435.18,467.54 434.81,463.00
             434.42,458.19 430.06,446.19 428.33,441.00
             428.33,441.00 414.34,400.00 414.34,400.00
             414.34,400.00 368.31,270.00 368.31,270.00
             368.31,270.00 320.42,140.00 320.42,140.00
             310.70,114.00 301.47,82.71 282.83,62.00
             262.86,39.81 227.95,17.16 198.00,12.44
             198.00,12.44 188.00,11.91 188.00,11.91
             188.00,11.91 176.00,11.09 176.00,11.09
             176.00,11.09 124.00,11.09 124.00,11.09
             124.00,11.09 52.00,11.09 52.00,11.09
             52.00,11.09 39.00,12.53 39.00,12.53 Z
           M 175.00,40.00
           C 185.23,40.02 192.36,43.01 202.00,45.98
             209.12,48.16 216.24,50.11 223.00,53.32
             245.15,63.85 266.26,86.66 276.14,109.00
             280.82,119.59 284.86,135.41 285.00,147.00
             285.32,174.62 277.91,200.62 259.70,222.00
             259.70,222.00 232.92,250.00 232.92,250.00
             227.61,256.45 223.18,263.29 224.29,272.00
             225.86,284.37 236.71,302.19 243.20,313.00
             243.20,313.00 286.81,383.00 286.81,383.00
             291.97,391.42 304.78,409.05 306.00,418.00
             306.00,418.00 232.00,418.00 232.00,418.00
             232.00,418.00 217.00,419.00 217.00,419.00
             217.00,419.00 95.00,419.00 95.00,419.00
             95.00,419.00 80.00,420.00 80.00,420.00
             80.00,420.00 50.00,420.00 50.00,420.00
             50.00,420.00 49.00,404.00 49.00,404.00
             49.00,404.00 49.00,228.00 49.00,228.00
             49.00,228.00 49.00,130.00 49.00,130.00
             49.00,130.00 50.00,115.00 50.00,115.00
             50.00,115.00 50.00,40.00 50.00,40.00
             50.00,40.00 175.00,40.00 175.00,40.00 Z
           M 335.95,272.00
           C 335.95,272.00 387.20,409.00 387.20,409.00
             392.51,422.27 400.60,441.27 402.57,455.00
             403.33,460.26 403.87,470.72 396.96,471.85
             384.97,473.82 381.65,465.47 376.00,457.00
             376.00,457.00 341.31,403.00 341.31,403.00
             341.31,403.00 281.40,308.00 281.40,308.00
             281.40,308.00 266.72,284.00 266.72,284.00
             264.92,280.83 262.00,276.78 262.49,273.00
             263.01,269.06 267.69,263.96 270.29,261.00
             270.29,261.00 293.00,236.00 293.00,236.00
             293.00,236.00 308.53,213.14 308.53,213.14
             310.22,211.25 310.85,211.07 313.00,210.00
             313.00,210.00 335.95,272.00 335.95,272.00 Z
           M 67.57,333.43
           C 66.92,334.74 67.01,337.51 67.00,339.00
             67.00,339.00 67.00,399.00 67.00,399.00
             77.94,400.99 94.92,403.87 103.96,395.79
             114.96,385.95 114.58,363.14 102.00,354.70
             96.17,350.79 87.54,351.83 81.00,353.00
             81.00,353.00 81.00,330.00 81.00,330.00
             77.78,330.07 69.17,330.24 67.57,333.43 Z
           M 138.00,371.00
           C 133.90,371.01 130.91,370.88 127.00,372.48
             115.71,377.10 115.77,390.75 122.13,396.78
             127.68,402.03 141.65,401.54 149.00,400.83
             151.25,400.61 156.57,400.06 158.01,398.26
             159.26,396.71 159.00,392.95 159.00,391.00
             159.01,384.23 159.99,366.34 157.43,361.00
             151.64,348.93 132.69,350.91 122.00,354.00
             122.00,354.00 124.00,365.00 124.00,365.00
             133.09,363.80 141.68,360.61 146.00,371.00
             146.00,371.00 138.00,371.00 138.00,371.00 Z
           M 204.98,386.00
           C 205.05,383.38 205.05,380.39 203.83,378.02
             201.08,372.69 196.16,371.84 191.00,370.36
             189.27,369.86 185.13,368.70 184.73,366.61
             184.34,364.58 187.63,363.89 189.02,363.87
             193.04,363.39 198.07,365.56 200.27,363.87
             200.84,363.55 207.10,354.46 197.00,352.24
             194.92,352.06 193.10,352.03 191.00,352.24
             180.73,351.88 170.65,353.37 169.34,366.00
             168.71,372.03 171.41,377.62 177.00,380.20
             183.07,383.00 188.65,381.46 191.00,389.00
             178.67,389.89 180.93,388.54 170.00,387.00
             170.00,387.00 168.00,399.00 168.00,399.00
             180.75,401.56 204.51,405.49 204.98,386.00 Z
           M 258.00,377.00
           C 257.98,372.03 257.54,367.62 255.47,363.00
             249.87,350.48 230.96,348.35 221.09,356.53
             209.25,366.36 209.72,390.66 224.00,398.18
             228.37,400.48 231.16,400.94 236.00,401.00
             236.00,401.00 242.00,401.00 242.00,401.00
             248.20,400.92 249.21,400.16 255.00,399.00
             255.00,399.00 253.00,387.00 253.00,387.00
             242.30,390.47 233.42,392.00 227.00,381.00
             227.00,381.00 258.00,381.00 258.00,381.00
             258.00,381.00 258.00,377.00 258.00,377.00 Z
           M 81.00,371.00
           C 81.21,360.12 91.59,363.19 94.35,366.30
             98.58,371.06 97.97,383.33 92.79,387.28
             89.18,390.03 85.16,389.65 81.00,389.00
             81.00,389.00 81.00,371.00 81.00,371.00 Z
           M 244.00,372.00
           C 244.00,372.00 227.00,372.00 227.00,372.00
             231.35,360.00 241.73,361.36 244.00,372.00 Z
           M 135.15,388.79
           C 131.12,386.36 131.47,381.33 139.00,380.77
             141.35,380.28 143.68,380.71 146.00,380.77
             146.00,380.77 146.00,388.79 146.00,388.79
             142.44,389.63 138.52,390.43 135.15,388.79 Z" />
 </g>
</svg>
